name Walk8.mot
datacolumns 19
datarows 27
range 1.47000000 1.60000000
endheader

                time	   L_ground_force_vx	   L_ground_force_vy	   L_ground_force_vz	   L_ground_force_px	   L_ground_force_py	   L_ground_force_pz	   R_ground_force_vx	   R_ground_force_vy	   R_ground_force_vz	   R_ground_force_px	   R_ground_force_py	   R_ground_force_pz	   L_ground_torque_x	   L_ground_torque_y	   L_ground_torque_z	   R_ground_torque_x	   R_ground_torque_y	   R_ground_torque_z	
          1.47000000	         -0.00000000	         -0.00000000	          0.00000000	         -0.00000000	          0.00000000	         -0.00000000	         23.52309076	        697.72336319	        -22.16562211	         -0.12346372	          0.00000000	          0.33225971	          0.00000000	          0.00000000	          0.00000000	          0.00000000	          0.58039878	          0.00000000	
          1.47500000	          0.00000000	          0.00000000	          0.00000000	          0.00000000	          0.00000000	          0.00000000	         25.40893604	        705.66172309	        -23.11196159	         -0.12094543	          0.00000000	          0.33237723	          0.00000000	         -0.00000000	          0.00000000	          0.00000000	          0.42109280	          0.00000000	
          1.48000000	          0.00000000	          0.00000000	         -0.00000000	          0.00000000	          0.00000000	          0.00000000	         27.43716537	        713.64709441	        -23.72888729	         -0.11855474	          0.00000000	          0.33209158	          0.00000000	         -0.00000000	          0.00000000	          0.00000000	          0.32278769	          0.00000000	
          1.48500000	          0.00000000	          0.00000001	         -0.00000000	          0.00000000	          0.00000000	          0.00000000	         29.66165940	        721.32339540	        -24.06384014	         -0.11599467	          0.00000000	          0.33194554	          0.00000000	         -0.00000000	          0.00000000	          0.00000000	          0.31129721	          0.00000000	
          1.49000000	         -0.00000000	         -0.00000001	         -0.00000000	         -0.00000000	          0.00000000	         -0.00000000	         32.30486290	        729.06239237	        -24.04013715	         -0.11350123	          0.00000000	          0.33178117	          0.00000000	          0.00000000	          0.00000000	          0.00000000	          0.32144124	          0.00000000	
          1.49500000	         -0.00000000	         -0.00000006	          0.00000000	         -0.00000000	          0.00000000	         -0.00000000	         35.39454270	        736.96892097	        -23.64435976	         -0.11124094	          0.00000000	          0.33154741	          0.00000000	          0.00000000	          0.00000000	          0.00000000	          0.37008967	          0.00000000	
          1.50000000	         -0.00000001	         -0.00000011	          0.00000001	          0.00000000	          0.00000000	          0.00000000	         38.73113928	        744.56178542	        -23.29014749	         -0.10918796	          0.00000000	          0.33147014	          0.00000000	          0.00000000	          0.00000000	          0.00000000	          0.37960202	          0.00000000	
          1.50500000	          0.00000002	          0.00000027	         -0.00000001	          0.00000000	          0.00000000	          0.00000000	         42.27290339	        751.53004764	        -23.63118163	         -0.10737412	          0.00000000	          0.33132162	          0.00000000	         -0.00000000	          0.00000000	          0.00000000	          0.25279066	          0.00000000	
          1.51000000	          0.00000011	          0.00000168	         -0.00000009	          0.00000000	          0.00000000	          0.00000000	         46.61845714	        757.77979704	        -24.19638449	         -0.10575996	          0.00000000	          0.33100031	          0.00000000	         -0.00000000	          0.00000000	          0.00000000	          0.08303736	          0.00000000	
          1.51500000	          0.00000008	          0.00000191	         -0.00000018	         -0.00000001	          0.00000000	         -0.00000000	         51.59200482	        763.42385485	        -23.85298807	         -0.10431851	          0.00000000	          0.33038609	          0.00000000	         -0.00000000	          0.00000000	          0.00000000	          0.02287592	          0.00000000	
          1.52000000	         -0.00000082	         -0.00001056	          0.00000039	         -0.00000004	          0.00000000	         -0.00000002	         56.01249072	        769.01624100	        -22.60842073	         -0.10302930	          0.00000000	          0.32966373	          0.00000000	          0.00000002	          0.00000000	          0.00000000	          0.16422852	          0.00000000	
          1.52500000	         -0.00000284	         -0.00004498	          0.00000270	         -0.00000005	          0.00000000	         -0.00000003	         59.94143671	        774.28693178	        -21.20022029	         -0.10172114	          0.00000000	          0.32922936	          0.00000000	          0.00000006	          0.00000000	          0.00000000	          0.35996844	          0.00000000	
          1.53000000	          0.00000020	         -0.00001944	          0.00000337	          0.00000021	          0.00000000	          0.00000013	         64.39169121	        778.99456799	        -19.90705896	         -0.10059967	          0.00000000	          0.32884915	          0.00000000	          0.00000002	          0.00000000	          0.00000000	          0.42670292	          0.00000000	
          1.53500000	          0.00002674	          0.00036405	         -0.00001611	          0.00000098	          0.00000000	          0.00000059	         69.57859405	        783.26414273	        -18.64304560	         -0.09965643	          0.00000000	          0.32853787	          0.00000000	         -0.00000052	          0.00000000	          0.00000000	          0.41537505	          0.00000000	
          1.54000000	          0.00006752	          0.00112383	         -0.00007286	          0.00000058	          0.00000000	          0.00000033	         74.92378213	        787.27755138	        -17.34839478	         -0.09880772	          0.00000000	          0.32831416	          0.00000000	         -0.00000155	          0.00000000	          0.00000000	          0.35436912	          0.00000000	
          1.54500000	         -0.00007121	         -0.00043854	         -0.00004058	         -0.00000750	          0.00000000	         -0.00000460	         80.04755243	        791.03301635	        -16.07214975	         -0.09823199	          0.00000000	          0.32790317	          0.00000000	          0.00000077	          0.00000000	          0.00000000	          0.33409780	          0.00000000	
          1.55000000	         -0.00080697	         -0.01149464	          0.00056615	         -0.00002477	          0.00000000	         -0.00001495	         85.24389164	        794.41893516	        -14.86184996	         -0.09780859	          0.00000000	          0.32745640	          0.00000000	          0.00001629	          0.00000000	          0.00000000	          0.38953101	          0.00000000	
          1.55500000	         -0.00143787	         -0.02578711	          0.00184308	          0.00000486	          0.00000000	          0.00000364	         90.61667483	        796.93669076	        -13.98253709	         -0.09733523	          0.00000000	          0.32723939	          0.00000000	          0.00003513	          0.00000000	          0.00000000	          0.40517956	          0.00000000	
          1.56000000	          0.00370540	          0.03901164	         -0.00043460	          0.00024090	          0.00000000	          0.00014722	         95.82765110	        798.56355232	        -13.64574989	         -0.09685592	          0.00000000	          0.32697376	          0.00000000	         -0.00005894	          0.00000000	          0.00000000	          0.35665772	          0.00000000	
          1.56500000	          0.02286615	          0.33887624	         -0.01811265	          0.00058036	          0.00000000	          0.00034846	        100.73731276	        799.45228171	        -13.79248540	         -0.09638068	          0.00000000	          0.32647079	          0.00000000	         -0.00047668	          0.00000000	          0.00000000	          0.29687858	          0.00000000	
          1.57000000	          0.02519034	          0.51986894	         -0.04299715	         -0.00071397	          0.00000000	         -0.00045246	        105.54395721	        798.80978437	        -14.25302839	         -0.09597543	          0.00000000	          0.32597905	          0.00000000	         -0.00069380	          0.00000000	          0.00000000	          0.19252012	          0.00000000	
          1.57500000	         -0.14535443	         -1.77386119	          0.05534000	         -0.00720102	          0.00000000	         -0.00438537	        110.60190801	        795.99203098	        -14.81701204	         -0.09561931	          0.00000000	          0.32569374	          0.00000000	          0.00259244	          0.00000000	          0.00000000	          0.03061882	          0.00000000	
          1.58000000	         -0.60933534	         -9.39401172	          0.53984739	         -0.01210702	          0.00000000	         -0.00721036	        115.94436602	        790.47755087	        -15.30750134	         -0.09520119	          0.00000000	          0.32576281	          0.00000000	          0.01312108	          0.00000000	          0.00000000	         -0.21442332	          0.00000000	
          1.58500000	         -0.24170525	         -8.03035053	          0.89091333	          0.03494349	          0.00000000	          0.02170254	        121.20005129	        782.33937225	        -15.62289941	         -0.09471482	          0.00000000	          0.32603184	          0.00000000	          0.01015848	          0.00000000	          0.00000000	         -0.48999477	          0.00000000	
          1.59000000	          4.98968372	         65.74310254	         -2.66444772	          0.20246975	          0.00000000	          0.12290327	        126.18006518	        772.41382769	        -15.64776645	         -0.09424996	          0.00000000	          0.32603505	          0.00000000	         -0.09455295	          0.00000000	          0.00000000	         -0.65299552	          0.00000000	
          1.59500000	         16.74938494	        261.04160237	        -16.54789933	          0.35355270	          0.00000000	          0.21192080	        131.05032830	        760.78505006	        -15.23872311	         -0.09398179	          0.00000000	          0.32569393	          0.00000000	         -0.35423293	          0.00000000	          0.00000000	         -0.71067725	          0.00000000	
          1.60000000	         22.46599510	        431.58536146	        -41.39494739	          0.38944555	          0.00000000	          0.23227134	        135.72359951	        746.75677848	        -14.17949110	         -0.09365885	          0.00000000	          0.32520210	          0.00000000	         -0.53210506	          0.00000000	          0.00000000	         -0.65475153	          0.00000000	
